Simulation
nRows=31
nColumns=15
endheader
time  TH_x TH_y TH_z SC_y  SC_z  SC_x  AC_y  AC_z  AC_x  GH_y  GH_z  GH_yy  EL_x  PS_y
2.8725  0.000000  0.000000  0.000000  -33.11202783844038  -6.247600651713427  16.401183971371676  47.70157297969216  -25.52740391857582  -7.172106742675902  -17.001656764978236  31.341042196972904  14.65004502075862  14.150685158307823  120.000000
2.92995  0.000000  0.000000  0.000000  -33.215039086398924  -5.9599566093383265  17.825432148025918  47.28570445471065  -26.00476819463959  -8.362141776748333  -15.967565396493871  29.02564204730844  16.795658674040336  14.506461009493254  120.000000
2.9874  0.000000  0.000000  0.000000  -33.320662819457645  -5.7234616026550995  18.783693748962637  47.11472524059255  -26.286980728750507  -9.039958517017793  -14.989837677330808  27.189692801909846  18.436881546560766  14.945466149359312  120.000000
3.0448500000000003  0.000000  0.000000  0.000000  -33.42903624578293  -5.520300731184084  19.37153333915873  47.11811789004788  -26.42061392267721  -9.328425563297092  -14.075764037033048  25.774073973019423  19.54950753210189  15.42619478363168  120.000000
3.1023  0.000000  0.000000  0.000000  -33.53304183823604  -5.339968762253589  19.710959296549795  47.20809697547812  -26.463133037845658  -9.384970907144455  -13.246061591635861  24.725414840780665  20.192801917540738  15.907340218073609  120.000000
3.15975  0.000000  0.000000  0.000000  -33.61910792502906  -5.183614922515818  19.922245432474398  47.3042221855019  -26.470580736856913  -9.362509356554993  -12.520606625165891  23.99429505763582  20.472899118255086  16.35869652822707  120.000000
3.2172  0.000000  0.000000  0.000000  -33.68343959602677  -5.050101506382238  20.080845723716624  47.370125698798724  -26.474174167293356  -9.343797161443584  -11.924239931850039  23.52612201027233  20.526223554844936  16.768040210664047  120.000000
3.2746500000000003  0.000000  0.000000  0.000000  -33.73350477196937  -4.932169118672291  20.21187843786743  47.41200474913626  -26.478358117629828  -9.336100916127688  -11.479870194735357  23.260069162373444  20.493841660647835  17.139509603405656  120.000000
3.3321  0.000000  0.000000  0.000000  -33.775940082201956  -4.82789310489422  20.322359469386758  47.444849408726036  -26.48144359448185  -9.329635946764705  -11.174741161949981  23.13566704902371  20.47395703516864  17.488390553306914  120.000000
3.38955  0.000000  0.000000  0.000000  -33.81214238343206  -4.743789912865647  20.417307697107056  47.477612093647004  -26.48392723128794  -9.32199265575353  -10.953525474264227  23.096612346476732  20.50153384487149  17.83232898539228  120.000000
3.447  0.000000  0.000000  0.000000  -33.841381697784136  -4.686075901102166  20.499728651432925  47.51533213935233  -26.48687349792472  -9.313153962832457  -10.747584436586365  23.094752321912118  20.56608384440386  18.183864714101016  120.000000
3.5044500000000003  0.000000  0.000000  0.000000  -33.86635151980489  -4.650512740845583  20.56576896199311  47.56423269499097  -26.48667206682286  -9.293025627323983  -10.516934487228237  23.093634529938875  20.65062453572235  18.54697488521158  120.000000
3.5619  0.000000  0.000000  0.000000  -33.89457681581132  -4.6188010699774065  20.600084390834876  47.63905339840915  -26.471626028509633  -9.23000525511347  -10.267566200525074  23.068395946627817  20.75646968730717  18.91825049209354  120.000000
3.61935  0.000000  0.000000  0.000000  -33.93453104573469  -4.567916031945221  20.585252976662996  47.755000406213256  -26.427675256845927  -9.088467878462284  -10.031646542793013  23.005689725009272  20.897596890958823  19.292637265432035  120.000000
3.6768  0.000000  0.000000  0.000000  -33.99216862172475  -4.4790761504172725  20.50810524809735  47.92098965970345  -26.345504541874213  -8.84268800050776  -9.844983476177696  22.90375751355752  21.089046909943573  19.666557742307628  120.000000
3.7342500000000003  0.000000  0.000000  0.000000  -34.06929912095473  -4.344241655275701  20.35560074025397  48.14236317347164  -26.216136515268783  -8.47650063848829  -9.735650787413574  22.769301325275563  21.34271843062452  20.039215638648084  120.000000
3.7917  0.000000  0.000000  0.000000  -34.16274507139731  -4.1714265730716305  20.110969456903632  48.423164074801505  -26.02311701491131  -7.98500275749748  -9.717581358678895  22.61465427063652  21.664201115621704  20.412791476435828  120.000000
3.84915  0.000000  0.000000  0.000000  -34.26474400673307  -3.9792827104679165  19.75604745161433  48.76519771857019  -25.753880374634065  -7.368177147743495  -9.80306521707589  22.46552291205764  22.06530793971293  20.789823736240766  120.000000
3.9066  0.000000  0.000000  0.000000  -34.364774934664055  -3.7907638322392416  19.273397684885982  49.167496251206884  -25.41000486439278  -6.624072366068163  -10.014598430541678  22.36786385622542  22.574693691372058  21.1702934683924  120.000000
3.9640500000000003  0.000000  0.000000  0.000000  -34.45217193186156  -3.6313395334854066  18.643237053718615  49.62731898896838  -25.00115479387506  -5.74867899496361  -10.38403617489506  22.386537421674976  23.23642823676646  21.55150388074076  120.000000
4.0215  0.000000  0.000000  0.000000  -34.522691855110025  -3.524626947442176  17.840716390680626  50.13922328667451  -24.53859266608191  -4.736373323110688  -10.938536824490889  22.600036145356423  24.090570212593263  21.92785158861078  120.000000
4.07895  0.000000  0.000000  0.000000  -34.57795246177038  -3.490708032143383  16.834548475442308  50.69857449479388  -24.029665417628213  -3.5758993580409038  -11.670634787618924  23.086639544506433  25.13611727784211  22.291660227698415  120.000000
4.1364  0.000000  0.000000  0.000000  -34.61768094698368  -3.551606797283167  15.589170142888301  51.31203484950931  -23.471370104652703  -2.2467472111710345  -12.50923097912178  23.90518251526047  26.292118253883128  22.630893582361423  120.000000
4.19385  0.000000  0.000000  0.000000  -34.64057709328428  -3.7233555842033588  14.081050356082539  51.993973053752796  -22.851451619591582  -0.7281479290077612  -13.333572915275598  25.079259093836043  27.405917588314043  22.928630961430024  120.000000
4.2513000000000005  0.000000  0.000000  0.000000  -34.65029345672451  -4.003258175055625  12.315114911700322  52.76090229969492  -22.151066743060742  0.9904518660681032  -14.015243250495026  26.595034283802914  28.296313542425626  23.164658103532886  120.000000
4.30875  0.000000  0.000000  0.000000  -34.66288150911138  -4.362032412194499  10.330554936476716  53.63433925615445  -21.3442307252668  2.909653428920052  -14.452695042016176  28.407500563024854  28.797971587039086  23.32284442101544  120.000000
4.3662  0.000000  0.000000  0.000000  -34.697298376517615  -4.737625514267886  8.207989395747935  54.63920558242656  -20.399314454038894  5.016116305812309  -14.610064933752673  30.448144765523526  28.812841657711765  23.399659768130064  120.000000
4.42365  0.000000  0.000000  0.000000  -34.79618512019108  -5.021123305637235  6.070676447630691  55.80510128220513  -19.29384578169115  7.291500651185636  -14.49939685222743  32.63574256307421  28.30183968648891  23.418414943128514  120.000000
4.4811  0.000000  0.000000  0.000000  -35.05158743100024  -5.069662808847889  4.074361546494698  57.16795802465275  -18.033539820184764  9.71660009630345  -14.124250270830375  34.89291606762925  27.239657587809095  23.428992254732293  120.000000
4.53855  0.000000  0.000000  0.000000  -35.580356686867994  -4.7424331284498455  2.393093704119338  58.75733517326675  -16.63517133043049  12.253542297939982  -13.479311061636023  37.139816766277974  25.613066989306656  23.491595863566932  120.000000
4.596  0.000000  0.000000  0.000000  -36.436547407697084  -3.921527073084495  1.2118037477264245  60.574761845680705  -15.11131588000196  14.837687053585308  -12.605039973452518  39.283637153548035  23.456211954173426  23.653234450513477  120.000000
